<svg width="14" height="14" viewBox="0 0 14 14" fill="none" xmlns="http://www.w3.org/2000/svg">
<path d="M4.9665 13.9987C4.5315 13.9987 4.1195 13.7957 3.8555 13.4457L0.2825 8.72469C0.172033 8.5789 0.091385 8.41276 0.0451667 8.23577C-0.00105163 8.05879 -0.0119341 7.87443 0.0131414 7.69323C0.0382168 7.51204 0.0987583 7.33757 0.191305 7.17979C0.283852 7.022 0.406589 6.88401 0.5525 6.77369C0.698358 6.66292 0.864644 6.58202 1.04183 6.53562C1.21901 6.48923 1.40361 6.47826 1.58504 6.50334C1.76647 6.52843 1.94117 6.58907 2.09912 6.68179C2.25707 6.77452 2.39517 6.8975 2.5055 7.04369L4.8565 10.1477L10.7675 0.655694C10.9635 0.342294 11.2759 0.119441 11.636 0.0360176C11.9961 -0.0474054 12.3746 0.0154132 12.6885 0.210694C13.3415 0.616694 13.5425 1.47669 13.1345 2.13069L6.1505 13.3407C6.03128 13.5329 5.86695 13.6931 5.67177 13.8075C5.4766 13.9218 5.25647 13.9867 5.0305 13.9967C5.0085 13.9987 4.9885 13.9987 4.9665 13.9987Z" fill="#FED100"/>
</svg>
