<svg width="14" height="14" viewBox="0 0 14 14" fill="none" xmlns="http://www.w3.org/2000/svg">
<path d="M4.9665 13.998C4.5315 13.998 4.1195 13.795 3.8555 13.445L0.2825 8.72396C0.172033 8.57816 0.091385 8.41202 0.0451667 8.23504C-0.00105163 8.05805 -0.0119341 7.87369 0.0131414 7.6925C0.0382168 7.51131 0.0987583 7.33683 0.191305 7.17905C0.283852 7.02127 0.406589 6.88328 0.5525 6.77296C0.698358 6.66218 0.864644 6.58128 1.04183 6.53489C1.21901 6.4885 1.40361 6.47753 1.58504 6.50261C1.76647 6.52769 1.94117 6.58834 2.09912 6.68106C2.25707 6.77378 2.39517 6.89677 2.5055 7.04296L4.8565 10.147L10.7675 0.654962C10.9635 0.341561 11.2759 0.118708 11.636 0.0352852C11.9961 -0.0481378 12.3746 0.0146808 12.6885 0.209962C13.3415 0.615962 13.5425 1.47596 13.1345 2.12996L6.1505 13.34C6.03128 13.5322 5.86695 13.6924 5.67177 13.8067C5.4766 13.921 5.25647 13.986 5.0305 13.996C5.0085 13.998 4.9885 13.998 4.9665 13.998Z" fill="#333333"/>
</svg>
